<?xml version="1.0" encoding="UTF-8" standalone="no"?>
<svg
   xmlns:dc="http://purl.org/dc/elements/1.1/"
   xmlns:cc="http://creativecommons.org/ns#"
   xmlns:rdf="http://www.w3.org/1999/02/22-rdf-syntax-ns#"
   xmlns:svg="http://www.w3.org/2000/svg"
   xmlns="http://www.w3.org/2000/svg"
   xmlns:sodipodi="http://sodipodi.sourceforge.net/DTD/sodipodi-0.dtd"
   xmlns:inkscape="http://www.inkscape.org/namespaces/inkscape"
   height="125"
   width="125"
   version="1.1"
   x="0px"
   y="0px"
   viewBox="0 0 125 125"
   enable-background="new 0 0 100 100"
   xml:space="preserve"
   id="svg14"
   sodipodi:docname="magnifyingGlass.svg"
   style="fill:#000000"
   inkscape:version="0.92.4 (5da689c313, 2019-01-14)"><metadata
     id="metadata20"><rdf:RDF><cc:Work
         rdf:about=""><dc:format>image/svg+xml</dc:format><dc:type
           rdf:resource="http://purl.org/dc/dcmitype/StillImage" /><dc:title></dc:title></cc:Work></rdf:RDF></metadata><defs
     id="defs18" /><sodipodi:namedview
     pagecolor="#ffffff"
     bordercolor="#666666"
     borderopacity="1"
     objecttolerance="10"
     gridtolerance="10"
     guidetolerance="10"
     inkscape:pageopacity="0"
     inkscape:pageshadow="2"
     inkscape:window-width="1671"
     inkscape:window-height="959"
     id="namedview16"
     showgrid="false"
     inkscape:zoom="3.337544"
     inkscape:cx="24.25685"
     inkscape:cy="59.38046"
     inkscape:window-x="0"
     inkscape:window-y="0"
     inkscape:window-maximized="0"
     inkscape:current-layer="svg14" /><path
     d="m 46.026701,8.7789271 c -23.805955,0 -43.1051174,19.7236119 -43.1051174,44.0521029 0,24.329819 19.2991624,44.052108 43.1051174,44.052108 23.805954,0 43.103841,-19.723558 43.103841,-44.052108 0,-24.328491 -19.297887,-44.0521029 -43.103841,-44.0521029 z m 0,75.1637699 c -16.812526,0 -30.442511,-13.932034 -30.442511,-31.111667 0,-17.180844 13.629985,-31.111609 30.442511,-31.111609 16.811249,0 30.441235,13.930765 30.441235,31.111609 0,17.180902 -13.629986,31.111667 -30.441235,31.111667 z"
     id="path2"
     inkscape:connector-curvature="0"
     style="fill:#ffffff;stroke-width:1.27454519" /><path
     d="M 86.163398,66.847231 70.271094,88.6483 106.74092,115.80379 c 12.66389,-6.82263 13.45411,3.64518 15.4271,-17.266282 z M 103.31622,93.847188 82.845755,78.418792 85.082587,75.154694 105.12098,91.31977 Z"
     id="path4"
     inkscape:connector-curvature="0"
     style="fill:#ffffff;stroke-width:1.27454519" /><path
     d="m 45.367761,74.604121 c -8.516509,0 -15.558373,-6.245293 -16.844387,-14.402364 -0.138936,0.874318 -0.229408,1.761385 -0.229408,2.675277 0,9.429031 7.644723,17.073775 17.073808,17.073775 9.429081,0 17.073802,-7.644744 17.073802,-17.073775 0,-0.912623 -0.09051,-1.800959 -0.229425,-2.675277 -1.286013,8.157071 -8.327873,14.402364 -16.844382,14.402364 z"
     id="path6"
     inkscape:connector-curvature="0"
     style="fill:#ffffff;stroke-width:1.27454519" /></svg>