<?xml version="1.0" encoding="UTF-8" standalone="no"?>
<svg
   xmlns:dc="http://purl.org/dc/elements/1.1/"
   xmlns:cc="http://creativecommons.org/ns#"
   xmlns:rdf="http://www.w3.org/1999/02/22-rdf-syntax-ns#"
   xmlns:svg="http://www.w3.org/2000/svg"
   xmlns="http://www.w3.org/2000/svg"
   xmlns:sodipodi="http://sodipodi.sourceforge.net/DTD/sodipodi-0.dtd"
   xmlns:inkscape="http://www.inkscape.org/namespaces/inkscape"
   viewBox="0 0 25.000001 25"
   x="0px"
   y="0px"
   version="1.1"
   id="svg8"
   sodipodi:docname="shoppingCartLogo.svg"
   width="25"
   height="25"
   inkscape:version="0.92.4 (5da689c313, 2019-01-14)">
  <metadata
     id="metadata14">
    <rdf:RDF>
      <cc:Work
         rdf:about="">
        <dc:format>image/svg+xml</dc:format>
        <dc:type
           rdf:resource="http://purl.org/dc/dcmitype/StillImage" />
        <dc:title></dc:title>
      </cc:Work>
    </rdf:RDF>
  </metadata>
  <defs
     id="defs12" />
  <sodipodi:namedview
     pagecolor="#000000"
     bordercolor="#666666"
     borderopacity="1"
     objecttolerance="10"
     gridtolerance="10"
     guidetolerance="10"
     inkscape:pageopacity="0"
     inkscape:pageshadow="2"
     inkscape:window-width="1463"
     inkscape:window-height="879"
     id="namedview10"
     showgrid="false"
     inkscape:zoom="7.1357478"
     inkscape:cx="-10.384337"
     inkscape:cy="16.536459"
     inkscape:window-x="0"
     inkscape:window-y="0"
     inkscape:window-maximized="0"
     inkscape:current-layer="svg8" />
  <path
     d="m 23.383876,3.2464389 c 0.612862,-0.019304 0.716646,0.8684794 0.115889,0.9912136 l -1.872324,0.411259 -0.481159,2.2900199 c -2.51e-4,0.00283 -7.51e-4,0.00283 -10e-4,0.00473 L 18.758994,17.750273 c -0.05072,0.229392 -0.254064,0.392674 -0.488983,0.392674 H 4.755452 c -0.6776641,0.01001 -0.6776641,-1.011587 0,-1.001472 H 17.867615 L 18.328238,15.05489 H 4.0733564 C 3.8384431,15.054918 3.635096,14.891635 3.5843709,14.662245 L 1.8797704,6.9432181 C 1.8107167,6.6306386 2.0486422,6.334392 2.3687548,6.334392 c 5.9606053,1.514e-4 11.9211862,0 17.8816842,-0.00283 l 0.463555,-2.2059411 c 0.04049,-0.192883 0.190356,-0.34411 0.382875,-0.3862958 l 2.187719,-0.4802059 c 0.03256,-0.00758 0.06581,-0.012302 0.09926,-0.013248 z M 15.066243,19.200363 c 0.979804,0 1.783319,0.806924 1.783329,1.787321 1e-5,0.98036 -0.80351,1.787311 -1.783329,1.787311 -0.979814,0 -1.783336,-0.806951 -1.783325,-1.787311 9e-6,-0.980397 0.803525,-1.787321 1.783325,-1.787321 z m -7.1822067,0 c 0.9798031,0 1.7833191,0.806924 1.7833275,1.787321 9.5e-6,0.98036 -0.8035117,1.787311 -1.7833275,1.787311 -0.9798157,0 -1.783337,-0.806951 -1.7833264,-1.787311 8.4e-6,-0.980397 0.8035233,-1.787321 1.7833264,-1.787321 z"
     id="path2"
     inkscape:connector-curvature="0"
     style="stroke-width:0.94629312;fill:#ffffff" />
</svg>
